<svg xmlns="http://www.w3.org/2000/svg" viewBox="0 0 942.9 758.7" fill="currentColor" role="img" aria-label="Northstone Invest"><path d="M271,239.2V1.9h44.5l12.8,75,20.3,143h12.2l-2.5-135.8-1-82.2h21.2v237.3h-45.8l-14.2-85.9-17.2-132.4h-12.5l2.2,129.8,1.3,88.5h-21.2Z"/><path d="M456.5,241.1c-15.2,0-26.2-3.1-32.9-9.3-6.7-6.2-10.2-16.5-10.5-30.8-.2-15.3-.3-29.6-.4-42.7,0-13.1-.1-25.9-.1-38.3s0-25.1.1-38c0-12.9.2-26.8.4-41.6.3-14.4,3.8-24.8,10.5-31,6.7-6.2,17.7-9.3,32.9-9.3s26.2,3.1,32.8,9.3c6.7,6.2,10.2,16.6,10.6,31,.3,14.8.5,28.7.7,41.6.1,12.9.2,25.6.2,38s0,25.2-.2,38.3c-.1,13.1-.4,27.4-.7,42.7-.4,14.3-3.9,24.6-10.6,30.8-6.7,6.2-17.6,9.3-32.8,9.3ZM456.5,222.7c8.3,0,14.1-1.5,17.3-4.4,3.2-3,4.9-8.5,5-16.6.4-15.7.7-30.1.9-43.2.2-13.1.3-25.7.3-37.9s0-24.9-.3-38c-.2-13.1-.5-27.5-.9-43.1,0-8.1-1.8-13.7-5-16.8-3.2-3.1-9-4.6-17.3-4.6s-13.9,1.5-17.1,4.6c-3.2,3.1-4.9,8.7-5.1,16.8-.4,15.2-.7,29.3-.8,42.3-.1,13-.2,25.5-.2,37.7s0,24.9.2,38.2c.1,13.2.4,27.9.8,43.9.2,8.1,1.9,13.6,5.1,16.6,3.2,3,8.9,4.4,17.1,4.4Z"/><path d="M534.9,239.2V1.9h42.4c13.9,0,24.1,2.8,30.5,8.5,6.4,5.6,9.8,15,10.2,28,.4,9.7.6,18.5.7,26.5,0,8,0,15.7,0,23.1,0,7.4-.3,15.1-.7,23-.4,8.9-2.1,16-5.1,21.3-3,5.3-7.6,9.1-13.9,11.5l23.6,95.4h-22.2l-21.7-91.8h-22.7v91.8h-21.1ZM556,128.3h21.2c7.1,0,12.1-1.2,15-3.7,2.9-2.5,4.4-6.7,4.6-12.8.3-9.4.5-17.9.7-25.7.1-7.7.2-15.4.1-23.1,0-7.7-.3-16.2-.8-25.4-.3-6.1-1.9-10.4-4.7-12.9-2.8-2.5-7.7-3.7-14.8-3.7h-21.4v107.2Z"/><path d="M669.7,239.2V21.1h-35.3V1.9h88l3.5,19.1h-35.1v218.1h-21.1Z"/><path d="M746.3,239.2V1.9h21.1v108.4h44V1.9h21.2v237.3h-21.2v-109.6h-44v109.6h-21.1Z"/><path d="M44.1,498.7c-15.2,0-26.2-3-32.8-9-6.7-6-10.3-16-10.8-30,0-5.9-.2-11.4-.2-16.4s0-10.1,0-15.2c0-5.1.2-10.7.4-16.8h20.5c-.4,8.9-.6,17.4-.7,25.7,0,8.2.2,16.6.7,25.1.3,6.8,2.1,11.6,5.5,14.2,3.4,2.7,9.1,4,17.2,4s13.2-1.3,16.5-4c3.3-2.7,5.1-7.4,5.5-14.2.4-4.4.6-9.2.7-14.3,0-5.1,0-10.2-.1-15.3-.1-5.1-.3-9.9-.5-14.5-.2-8.3-1.7-14.5-4.6-18.5-2.9-4.1-7.7-7-14.5-8.7l-15.4-3.7c-7.8-2-13.9-4.8-18.4-8.5s-7.6-8.7-9.6-15c-1.9-6.3-3-14.4-3.3-24.3,0-6.5,0-13.5,0-20.8,0-7.4.2-14.8.3-22.3.3-9.3,1.9-16.8,4.9-22.4,3-5.6,7.6-9.7,13.9-12.3,6.3-2.6,14.6-3.9,24.8-3.9,14.6,0,25.2,3,31.7,9,6.5,6,10,15.9,10.5,29.9.2,6.3.2,13.2.1,20.8,0,7.5-.2,15.5-.4,23.9h-20.6c.3-9.2.5-17.5.6-25.1,0-7.5,0-14.9-.3-22.1-.3-6.7-2.1-11.4-5.3-14.1-3.3-2.7-8.8-4-16.6-4s-13.3,1.3-16.6,4c-3.3,2.7-5.1,7.4-5.5,14.1-.4,7.9-.6,15.5-.5,22.7,0,7.2.2,14.8.5,22.7.2,9.1,1.4,15.7,3.5,19.7,2.1,4.1,5.9,6.8,11.3,8.2l14.7,3.4c8.9,2.1,15.9,5,21.1,8.8s8.9,8.7,11.2,15c2.3,6.2,3.6,14.1,3.9,23.7.2,4.4.3,9.1.3,13.9s0,9.5-.1,14.2c0,4.7-.2,9.2-.3,13.6-.6,13.9-4.2,23.9-10.8,30-6.6,6-17.3,9-32.3,9Z"/><path d="M138.4,496.7v-218.1h-35.3v-19.1h91.5v19.1h-35.1v218.1h-21.1Z"/><path d="M255,498.7c-15.2,0-26.2-3.1-32.9-9.3-6.7-6.2-10.2-16.5-10.5-30.8-.2-15.3-.3-29.6-.4-42.7,0-13.1-.1-25.9-.1-38.3s0-25.1.1-38c0-12.9.2-26.8.4-41.6.3-14.4,3.8-24.8,10.5-31,6.7-6.2,17.7-9.3,32.9-9.3s26.2,3.1,32.8,9.3c6.7,6.2,10.2,16.6,10.6,31,.3,14.8.5,28.7.7,41.6.1,12.9.2,25.6.2,38s0,25.2-.2,38.3c-.1,13.1-.4,27.4-.7,42.7-.4,14.3-3.9,24.6-10.6,30.8-6.7,6.2-17.6,9.3-32.8,9.3ZM255,480.3c8.3,0,14.1-1.5,17.3-4.4,3.2-3,4.9-8.5,5-16.6.4-15.7.7-30.1.9-43.2.2-13.1.3-25.7.3-37.9s0-24.9-.3-38c-.2-13.1-.5-27.5-.9-43.1,0-8.1-1.8-13.7-5-16.8-3.2-3.1-9-4.6-17.3-4.6s-13.9,1.5-17.1,4.6c-3.2,3.1-4.9,8.7-5.1,16.8-.4,15.2-.7,29.3-.8,42.3-.1,13-.2,25.5-.2,37.7s0,24.9.2,38.2c.1,13.2.4,27.9.8,43.9.2,8.1,1.9,13.6,5.1,16.6,3.2,3,8.9,4.4,17.1,4.4Z"/><path d="M333.4,496.7v-237.3h44.5l12.8,75,20.3,143h12.2l-2.5-135.8-1-82.2h21.2v237.3h-45.8l-14.2-85.9-17.2-132.4h-12.5l2.2,129.8,1.3,88.5h-21.2Z"/><path d="M480.8,496.7v-237.3h73.8v19.1h-52.8v89.3h49.8v19.3h-49.8v90.5h52.8v19.1h-73.8Z"/><path d="M333,756.7v-237.3h21.1v237.3h-21.1Z"/><path d="M395.4,756.7v-237.3h44.5l12.8,75,20.3,143h12.2l-2.5-135.8-1-82.2h21.2v237.3h-45.8l-14.2-85.9-17.2-132.4h-12.5l2.2,129.8,1.3,88.5h-21.2Z"/><path d="M555,756.7l-25.4-237.3h21.9l13.8,133.5,5.9,84.5h11.6l6.1-84.5,13.6-133.5h22.2l-25.7,237.3h-44.2Z"/><path d="M651.7,756.7v-237.3h71.3l3.5,19.1h-53.7v89.3h50.7v19.3h-50.7v90.5h53.7v19.1h-74.7Z"/><path d="M792.4,758.7c-15.2,0-26.2-3-32.8-9-6.7-6-10.3-16-10.8-30,0-5.9-.2-11.4-.2-16.4,0-5,0-10.1,0-15.2,0-5.1.2-10.7.4-16.8h20.5c-.4,8.9-.6,17.4-.7,25.7,0,8.2.2,16.6.7,25.1.3,6.8,2.1,11.6,5.5,14.2,3.4,2.7,9.1,4,17.2,4s13.2-1.3,16.5-4c3.3-2.7,5.1-7.4,5.5-14.2.4-4.4.6-9.2.7-14.3,0-5.1,0-10.2-.2-15.3-.1-5.1-.3-9.9-.5-14.5-.2-8.3-1.7-14.5-4.6-18.5-2.9-4.1-7.7-7-14.5-8.8l-15.4-3.7c-7.8-2-13.9-4.8-18.4-8.5-4.4-3.7-7.6-8.7-9.6-15-1.9-6.3-3-14.4-3.3-24.3,0-6.5,0-13.5,0-20.8,0-7.4.2-14.8.3-22.3.3-9.3,1.9-16.8,4.9-22.4,3-5.6,7.6-9.7,13.9-12.3s14.6-3.9,24.8-3.9c14.6,0,25.2,3,31.7,9,6.5,6,10,15.9,10.5,29.9.2,6.3.2,13.2.1,20.8,0,7.5-.2,15.5-.4,23.9h-20.6c.3-9.2.5-17.5.6-25.1,0-7.5,0-14.9-.3-22.1-.3-6.7-2.1-11.4-5.3-14.1-3.3-2.7-8.8-4-16.6-4s-13.3,1.3-16.6,4c-3.3,2.7-5.1,7.4-5.5,14.1-.4,7.9-.6,15.5-.5,22.7,0,7.2.2,14.8.5,22.7.2,9.1,1.4,15.7,3.5,19.7,2.1,4.1,5.9,6.8,11.3,8.2l14.7,3.4c8.9,2.1,15.9,5,21.1,8.7,5.2,3.8,8.9,8.7,11.2,15,2.3,6.2,3.6,14.1,3.9,23.7.2,4.4.3,9.1.3,13.9s0,9.5-.1,14.2c0,4.7-.2,9.2-.3,13.6-.6,13.9-4.2,23.9-10.7,30-6.6,6-17.3,9-32.3,9Z"/><path d="M886.7,756.7v-218.1h-35.3v-19.1h88l3.5,19.1h-35.1v218.1h-21.1Z"/></svg>
